<svg width="104" height="139" viewBox="0 0 104 139" fill="none" xmlns="http://www.w3.org/2000/svg">
<g style="mix-blend-mode:multiply" opacity="0.3" filter="url(#filter0_f_83_4893)">
<ellipse cx="50.4855" cy="103.081" rx="43.991" ry="14.9916" transform="rotate(-28.5555 50.4855 103.081)" fill="url(#paint0_linear_83_4893)"/>
</g>
<path d="M49.6901 3.23332C52.0932 1.33731 55.4832 1.33731 57.8864 3.23332C59.695 4.66033 62.1158 5.04374 64.2769 4.24549C67.1483 3.18488 70.3724 4.23245 72.072 6.77827C73.3512 8.69435 75.535 9.80705 77.837 9.71569C80.8957 9.59432 83.6382 11.5869 84.468 14.5333C85.0924 16.7509 86.8255 18.484 89.0431 19.1085C91.9895 19.9382 93.9821 22.6808 93.8607 25.7394C93.7694 28.0414 94.8821 30.2252 96.7982 31.5044C99.344 33.204 100.392 36.4281 99.331 39.2995C98.5327 41.4606 98.9161 43.8814 100.343 45.6901C102.239 48.0932 102.239 51.4832 100.343 53.8864C98.9161 55.695 98.5327 58.1158 99.331 60.2769C100.392 63.1483 99.344 66.3724 96.7982 68.072C94.8821 69.3512 93.7694 71.535 93.8607 73.837C93.9821 76.8957 91.9895 79.6382 89.0431 80.468C86.8255 81.0924 85.0924 82.8255 84.468 85.0431C83.6382 87.9895 80.8957 89.9821 77.837 89.8607C75.535 89.7694 73.3512 90.8821 72.072 92.7982C70.3724 95.344 67.1483 96.3916 64.2769 95.331C62.1158 94.5327 59.695 94.9161 57.8864 96.3431C55.4832 98.2391 52.0932 98.2391 49.6901 96.3431C47.8814 94.9161 45.4606 94.5327 43.2995 95.331C40.4281 96.3916 37.204 95.344 35.5044 92.7982C34.2252 90.8821 32.0414 89.7694 29.7394 89.8607C26.6808 89.9821 23.9382 87.9895 23.1085 85.0431C22.484 82.8255 20.7509 81.0924 18.5333 80.468C15.5869 79.6382 13.5943 76.8957 13.7157 73.837C13.807 71.535 12.6943 69.3512 10.7783 68.072C8.23244 66.3724 7.18488 63.1483 8.24549 60.2769C9.04374 58.1158 8.66033 55.695 7.23332 53.8864C5.33731 51.4832 5.33731 48.0932 7.23332 45.6901C8.66033 43.8814 9.04374 41.4606 8.24549 39.2995C7.18488 36.4281 8.23245 33.204 10.7783 31.5044C12.6943 30.2252 13.807 28.0414 13.7157 25.7394C13.5943 22.6808 15.5869 19.9382 18.5333 19.1085C20.7509 18.484 22.484 16.7509 23.1085 14.5333C23.9382 11.5869 26.6808 9.59432 29.7394 9.71569C32.0414 9.80705 34.2252 8.69435 35.5044 6.77827C37.204 4.23244 40.4281 3.18488 43.2995 4.24549C45.4606 5.04374 47.8814 4.66033 49.6901 3.23332Z" fill="#365D56"/>
<path d="M49.6901 3.23332C52.0932 1.33731 55.4832 1.33731 57.8864 3.23332C59.695 4.66033 62.1158 5.04374 64.2769 4.24549C67.1483 3.18488 70.3724 4.23245 72.072 6.77827C73.3512 8.69435 75.535 9.80705 77.837 9.71569C80.8957 9.59432 83.6382 11.5869 84.468 14.5333C85.0924 16.7509 86.8255 18.484 89.0431 19.1085C91.9895 19.9382 93.9821 22.6808 93.8607 25.7394C93.7694 28.0414 94.8821 30.2252 96.7982 31.5044C99.344 33.204 100.392 36.4281 99.331 39.2995C98.5327 41.4606 98.9161 43.8814 100.343 45.6901C102.239 48.0932 102.239 51.4832 100.343 53.8864C98.9161 55.695 98.5327 58.1158 99.331 60.2769C100.392 63.1483 99.344 66.3724 96.7982 68.072C94.8821 69.3512 93.7694 71.535 93.8607 73.837C93.9821 76.8957 91.9895 79.6382 89.0431 80.468C86.8255 81.0924 85.0924 82.8255 84.468 85.0431C83.6382 87.9895 80.8957 89.9821 77.837 89.8607C75.535 89.7694 73.3512 90.8821 72.072 92.7982C70.3724 95.344 67.1483 96.3916 64.2769 95.331C62.1158 94.5327 59.695 94.9161 57.8864 96.3431C55.4832 98.2391 52.0932 98.2391 49.6901 96.3431C47.8814 94.9161 45.4606 94.5327 43.2995 95.331C40.4281 96.3916 37.204 95.344 35.5044 92.7982C34.2252 90.8821 32.0414 89.7694 29.7394 89.8607C26.6808 89.9821 23.9382 87.9895 23.1085 85.0431C22.484 82.8255 20.7509 81.0924 18.5333 80.468C15.5869 79.6382 13.5943 76.8957 13.7157 73.837C13.807 71.535 12.6943 69.3512 10.7783 68.072C8.23244 66.3724 7.18488 63.1483 8.24549 60.2769C9.04374 58.1158 8.66033 55.695 7.23332 53.8864C5.33731 51.4832 5.33731 48.0932 7.23332 45.6901C8.66033 43.8814 9.04374 41.4606 8.24549 39.2995C7.18488 36.4281 8.23245 33.204 10.7783 31.5044C12.6943 30.2252 13.807 28.0414 13.7157 25.7394C13.5943 22.6808 15.5869 19.9382 18.5333 19.1085C20.7509 18.484 22.484 16.7509 23.1085 14.5333C23.9382 11.5869 26.6808 9.59432 29.7394 9.71569C32.0414 9.80705 34.2252 8.69435 35.5044 6.77827C37.204 4.23244 40.4281 3.18488 43.2995 4.24549C45.4606 5.04374 47.8814 4.66033 49.6901 3.23332Z" fill="url(#paint1_linear_83_4893)" fill-opacity="0.2"/>
<path d="M70.694 37.1889C77.2481 41.0622 78.0228 50.0778 73.1551 55.6382C70.5637 58.5987 61.542 67.9281 58.5213 69.1895C54.0396 71.0613 49.2945 70.4227 45.4539 67.5203L45.6188 67.302C51.9991 68.6188 56.2928 64.6071 60.4083 60.636C62.8347 58.2951 70.4164 51.0063 71.0195 48.3227C71.935 44.2496 67.8712 40.1206 63.7584 40.6147C59.6457 41.1089 52.4219 51.1714 48.7523 53.9071C47.6367 54.7389 46.6168 55.0175 45.3175 54.2817C44.931 54.0629 40.5796 49.8595 40.2404 49.3936C38.0773 46.4238 41.4363 43.3928 44.4043 45.6099C45.163 46.1768 46.2292 48.0105 47.2442 47.5359C53.3281 42.0966 57.8516 33.3802 67.6375 35.9188C68.5772 36.1626 69.8605 36.6958 70.6935 37.1883L70.694 37.1889Z" fill="white"/>
<path d="M50.9016 38.7087C51.2348 39.0068 51.9787 39.4825 51.7781 39.9652C51.5757 40.4523 48.727 42.6162 48.3432 43.3151L48.0293 43.2282C43.2452 37.1687 33.341 43.5339 37.2498 50.2846C37.9651 51.5199 43.2479 56.7399 44.4988 57.4529C47.2018 58.9945 49.5276 58.1316 51.7841 56.4076C54.15 54.5999 62.0033 45.391 63.5918 45.006C65.8868 44.45 68.0444 46.4727 66.9892 48.768C66.4124 50.0229 57.5744 58.4998 55.9546 59.9317C51.7093 63.685 46.2841 64.7976 41.1509 61.8675C39.7504 61.0682 34.2372 55.8228 33.1475 54.4164C24.3688 43.0924 40.2277 29.1648 50.9016 38.7087Z" fill="white"/>
<defs>
<filter id="filter0_f_83_4893" x="0.267446" y="67.3546" width="100.436" height="71.4534" filterUnits="userSpaceOnUse" color-interpolation-filters="sRGB">
<feFlood flood-opacity="0" result="BackgroundImageFix"/>
<feBlend mode="normal" in="SourceGraphic" in2="BackgroundImageFix" result="shape"/>
<feGaussianBlur stdDeviation="5.45624" result="effect1_foregroundBlur_83_4893"/>
</filter>
<linearGradient id="paint0_linear_83_4893" x1="6.49453" y1="103.081" x2="94.4764" y2="103.081" gradientUnits="userSpaceOnUse">
<stop stop-color="#365D56" stop-opacity="0"/>
<stop offset="1" stop-color="#365D56"/>
</linearGradient>
<linearGradient id="paint1_linear_83_4893" x1="53.7882" y1="0" x2="53.7882" y2="99.5764" gradientUnits="userSpaceOnUse">
<stop stop-opacity="0"/>
<stop offset="1"/>
</linearGradient>
</defs>
</svg>
