<svg width="152" height="204" viewBox="0 0 152 204" fill="none" xmlns="http://www.w3.org/2000/svg">
<g style="mix-blend-mode:multiply" opacity="0.3" filter="url(#filter0_f_33_1419)">
<ellipse cx="74.1609" cy="151.138" rx="64.5" ry="21.9809" transform="rotate(-28.5555 74.1609 151.138)" fill="url(#paint0_linear_33_1419)"/>
</g>
<path d="M72.9913 4.74073C76.5148 1.96077 81.4852 1.96077 85.0087 4.74073C87.6606 6.83302 91.21 7.39518 94.3786 6.22478C98.5887 4.66971 103.316 6.20566 105.808 9.93837C107.683 12.7477 110.885 14.3792 114.261 14.2453C118.745 14.0673 122.766 16.9888 123.983 21.3089C124.899 24.5604 127.44 27.1014 130.691 28.017C135.011 29.2336 137.933 33.2548 137.755 37.7394C137.621 41.1146 139.252 44.3165 142.062 46.1921C145.794 48.6841 147.33 53.4113 145.775 57.6214C144.605 60.79 145.167 64.3394 147.259 66.9913C150.039 70.5148 150.039 75.4852 147.259 79.0087C145.167 81.6606 144.605 85.21 145.775 88.3786C147.33 92.5888 145.794 97.3159 142.062 99.8079C139.252 101.683 137.621 104.885 137.755 108.261C137.933 112.745 135.011 116.766 130.691 117.983C127.44 118.899 124.899 121.44 123.983 124.691C122.766 129.011 118.745 131.933 114.261 131.755C110.885 131.621 107.683 133.252 105.808 136.062C103.316 139.794 98.5887 141.33 94.3786 139.775C91.21 138.605 87.6606 139.167 85.0087 141.259C81.4852 144.039 76.5148 144.039 72.9913 141.259C70.3394 139.167 66.79 138.605 63.6214 139.775C59.4113 141.33 54.6841 139.794 52.1921 136.062C50.3165 133.252 47.1146 131.621 43.7394 131.755C39.2548 131.933 35.2336 129.011 34.017 124.691C33.1014 121.44 30.5604 118.899 27.3089 117.983C22.9888 116.766 20.0673 112.745 20.2453 108.261C20.3792 104.885 18.7477 101.683 15.9384 99.8079C12.2057 97.3159 10.6697 92.5887 12.2248 88.3786C13.3952 85.21 12.833 81.6606 10.7407 79.0087C7.96077 75.4852 7.96077 70.5148 10.7407 66.9913C12.833 64.3394 13.3952 60.79 12.2248 57.6214C10.6697 53.4113 12.2057 48.6841 15.9384 46.1921C18.7477 44.3165 20.3792 41.1146 20.2453 37.7394C20.0673 33.2548 22.9888 29.2336 27.3089 28.017C30.5604 27.1014 33.1014 24.5604 34.017 21.3089C35.2336 16.9888 39.2548 14.0673 43.7394 14.2453C47.1146 14.3792 50.3165 12.7477 52.1921 9.93837C54.6841 6.20565 59.4113 4.66971 63.6214 6.22478C66.79 7.39518 70.3394 6.83302 72.9913 4.74073Z" fill="#365D56"/>
<path d="M72.9913 4.74073C76.5148 1.96077 81.4852 1.96077 85.0087 4.74073C87.6606 6.83302 91.21 7.39518 94.3786 6.22478C98.5887 4.66971 103.316 6.20566 105.808 9.93837C107.683 12.7477 110.885 14.3792 114.261 14.2453C118.745 14.0673 122.766 16.9888 123.983 21.3089C124.899 24.5604 127.44 27.1014 130.691 28.017C135.011 29.2336 137.933 33.2548 137.755 37.7394C137.621 41.1146 139.252 44.3165 142.062 46.1921C145.794 48.6841 147.33 53.4113 145.775 57.6214C144.605 60.79 145.167 64.3394 147.259 66.9913C150.039 70.5148 150.039 75.4852 147.259 79.0087C145.167 81.6606 144.605 85.21 145.775 88.3786C147.33 92.5888 145.794 97.3159 142.062 99.8079C139.252 101.683 137.621 104.885 137.755 108.261C137.933 112.745 135.011 116.766 130.691 117.983C127.44 118.899 124.899 121.44 123.983 124.691C122.766 129.011 118.745 131.933 114.261 131.755C110.885 131.621 107.683 133.252 105.808 136.062C103.316 139.794 98.5887 141.33 94.3786 139.775C91.21 138.605 87.6606 139.167 85.0087 141.259C81.4852 144.039 76.5148 144.039 72.9913 141.259C70.3394 139.167 66.79 138.605 63.6214 139.775C59.4113 141.33 54.6841 139.794 52.1921 136.062C50.3165 133.252 47.1146 131.621 43.7394 131.755C39.2548 131.933 35.2336 129.011 34.017 124.691C33.1014 121.44 30.5604 118.899 27.3089 117.983C22.9888 116.766 20.0673 112.745 20.2453 108.261C20.3792 104.885 18.7477 101.683 15.9384 99.8079C12.2057 97.3159 10.6697 92.5887 12.2248 88.3786C13.3952 85.21 12.833 81.6606 10.7407 79.0087C7.96077 75.4852 7.96077 70.5148 10.7407 66.9913C12.833 64.3394 13.3952 60.79 12.2248 57.6214C10.6697 53.4113 12.2057 48.6841 15.9384 46.1921C18.7477 44.3165 20.3792 41.1146 20.2453 37.7394C20.0673 33.2548 22.9888 29.2336 27.3089 28.017C30.5604 27.1014 33.1014 24.5604 34.017 21.3089C35.2336 16.9888 39.2548 14.0673 43.7394 14.2453C47.1146 14.3792 50.3165 12.7477 52.1921 9.93837C54.6841 6.20565 59.4113 4.66971 63.6214 6.22478C66.79 7.39518 70.3394 6.83302 72.9913 4.74073Z" fill="url(#paint1_linear_33_1419)" fill-opacity="0.2"/>
<path d="M103.79 54.5264C113.399 60.2054 114.535 73.4242 107.398 81.5769C103.599 85.9176 90.371 99.5965 85.9419 101.446C79.3708 104.19 72.4135 103.254 66.7824 98.9986L67.0242 98.6786C76.379 100.609 82.6744 94.7272 88.7086 88.9048C92.2663 85.4725 103.383 74.7856 104.267 70.851C105.609 64.8789 99.6508 58.8249 93.6207 59.5494C87.5905 60.2739 76.999 75.0276 71.6186 79.0387C69.9829 80.2585 68.4874 80.6669 66.5824 79.5881C66.0157 79.2672 59.6356 73.1041 59.1382 72.421C55.9668 68.0668 60.8917 63.6226 65.2434 66.8733C66.3559 67.7045 67.9191 70.3932 69.4073 69.6973C78.3276 61.7221 84.9599 48.942 99.3082 52.6641C100.686 53.0216 102.568 53.8034 103.789 54.5256L103.79 54.5264Z" fill="white"/>
<path d="M74.7699 56.7548C75.2584 57.1919 76.3492 57.8893 76.0549 58.5971C75.7582 59.3113 71.5815 62.484 71.0188 63.5086L70.5584 63.3813C63.5439 54.4968 49.0223 63.8295 54.7534 73.7274C55.8023 75.5387 63.548 83.1923 65.382 84.2376C69.3451 86.4979 72.7553 85.2328 76.0638 82.705C79.5327 80.0546 91.0473 66.5524 93.3764 65.9879C96.7413 65.1726 99.9047 68.1384 98.3577 71.5037C97.512 73.3437 84.5536 85.7726 82.1786 87.8721C75.9541 93.3752 67.9996 95.0066 60.4732 90.7105C58.4199 89.5385 50.3364 81.8475 48.7386 79.7855C35.8672 63.1822 59.1197 42.7613 74.7699 56.7548Z" fill="white"/>
<defs>
<filter id="filter0_f_33_1419" x="0.530762" y="98.7559" width="147.26" height="104.765" filterUnits="userSpaceOnUse" color-interpolation-filters="sRGB">
<feFlood flood-opacity="0" result="BackgroundImageFix"/>
<feBlend mode="normal" in="SourceGraphic" in2="BackgroundImageFix" result="shape"/>
<feGaussianBlur stdDeviation="8" result="effect1_foregroundBlur_33_1419"/>
</filter>
<linearGradient id="paint0_linear_33_1419" x1="9.66094" y1="151.138" x2="138.661" y2="151.138" gradientUnits="userSpaceOnUse">
<stop stop-color="#365D56" stop-opacity="0"/>
<stop offset="1" stop-color="#365D56"/>
</linearGradient>
<linearGradient id="paint1_linear_33_1419" x1="79" y1="0" x2="79" y2="146" gradientUnits="userSpaceOnUse">
<stop stop-opacity="0"/>
<stop offset="1"/>
</linearGradient>
</defs>
</svg>
