<svg width="578" height="439" viewBox="0 0 578 439" fill="none" xmlns="http://www.w3.org/2000/svg">
<g opacity="0.1">
<path d="M507.171 21.7465C590.072 70.6309 599.871 184.416 538.3 254.593C505.523 291.957 391.409 409.704 353.2 425.624C296.512 449.247 236.492 441.188 187.914 404.557L190 401.802C270.703 418.421 325.012 367.789 377.069 317.671C407.76 288.126 503.659 196.135 511.288 162.266C522.868 110.86 471.465 58.7473 419.444 64.9838C367.422 71.2203 276.051 198.218 229.635 232.745C215.524 243.244 202.623 246.76 186.189 237.474C181.3 234.712 126.26 181.661 121.969 175.781C94.6087 138.3 137.095 100.045 174.637 128.027C184.234 135.182 197.72 158.325 210.558 152.336C287.512 83.6864 344.729 -26.3224 468.51 5.71669C480.395 8.79381 496.628 15.5237 507.164 21.7397L507.171 21.7465Z" fill="url(#paint0_linear_33_1866)"/>
<path d="M256.821 40.9283C261.035 44.6907 270.445 50.6942 267.907 56.7868C265.347 62.9342 229.315 90.2445 224.46 99.0646L220.489 97.9681C159.976 21.4924 34.7002 101.826 84.1415 187.026C93.1896 202.618 160.011 268.498 175.833 277.496C210.022 296.953 239.441 286.063 267.983 264.304C297.909 241.489 397.244 125.265 417.336 120.406C446.365 113.388 473.656 138.916 460.31 167.885C453.014 183.723 341.224 290.71 320.735 308.782C267.037 356.152 198.415 370.194 133.485 333.214C115.772 323.126 46.0364 256.923 32.2521 239.173C-78.7873 96.2548 121.808 -79.5249 256.821 40.9283Z" fill="url(#paint1_linear_33_1866)"/>
</g>
<defs>
<linearGradient id="paint0_linear_33_1866" x1="541.076" y1="39.7156" x2="29.0261" y2="307.6" gradientUnits="userSpaceOnUse">
<stop stop-color="white"/>
<stop offset="1"/>
</linearGradient>
<linearGradient id="paint1_linear_33_1866" x1="541.076" y1="39.7156" x2="29.0261" y2="307.6" gradientUnits="userSpaceOnUse">
<stop stop-color="white"/>
<stop offset="1"/>
</linearGradient>
</defs>
</svg>
